<svg width="28" height="22" viewBox="0 0 28 22" fill="none" xmlns="http://www.w3.org/2000/svg">
<path d="M24.6667 0.333344H3.33341C1.86675 0.333344 0.666748 1.53334 0.666748 3.00001V19C0.666748 20.4667 1.86675 21.6667 3.33341 21.6667H24.6667C26.1334 21.6667 27.3334 20.4667 27.3334 19V3.00001C27.3334 1.53334 26.1334 0.333344 24.6667 0.333344ZM8.66675 9.66668H3.33341V3.00001H8.66675V9.66668ZM16.6667 9.66668H11.3334V3.00001H16.6667V9.66668ZM24.6667 9.66668H19.3334V3.00001H24.6667V9.66668ZM8.66675 19H3.33341V12.3333H8.66675V19ZM16.6667 19H11.3334V12.3333H16.6667V19ZM24.6667 19H19.3334V12.3333H24.6667V19Z" fill="#76786B"/>
</svg>
