<svg width="14" height="22" viewBox="0 0 14 22" fill="none" xmlns="http://www.w3.org/2000/svg">
<path d="M12 3H2V2H12V3ZM12 20H2V19H12V20ZM12 0H2C0.9 0 0 0.9 0 2V20C0 21.1 0.9 22 2 22H12C13.1 22 14 21.1 14 20V2C14 0.9 13.1 0 12 0ZM2 5H12V17H2V5ZM11 10V8.14C11 7.51 10.55 7 10 7H4C3.45 7 3 7.51 3 8.14V10.1C3.55 10.1 4 10.55 4 11.1C4 11.65 3.55 12.1 3 12.1V13.86C3 14.49 3.45 15 4 15H10C10.55 15 11 14.49 11 13.86V12C10.45 12 10 11.55 10 11C10 10.45 10.45 10 11 10ZM7.5 13.5H6.5V12.5H7.5V13.5ZM7.5 11.5H6.5V10.5H7.5V11.5ZM7.5 9.5H6.5V8.5H7.5V9.5Z" fill="#76786B"/>
</svg>
