<svg width="28" height="28" viewBox="0 0 206 296" fill="none" xmlns="http://www.w3.org/2000/svg">
<path d="M98.4439 62.3418C96.2003 61.2114 94.3806 57.1638 94.3806 57.1638L89.3502 48.6699L80.7987 34.1803C80.7987 34.1803 78.6461 30.9538 74.7623 26.6857L69.229 20.69C69.229 20.69 65.6866 17.4694 63.1927 15.6936C60.3998 13.705 58.9886 12.8089 56.1504 11.1968C53.0997 9.4642 51.2315 8.35715 48.1018 7.19972C44.1662 5.74426 41.7203 5.58009 37.5382 5.20116C33.6255 4.84665 27.4776 5.20116 27.4776 5.20116C27.4776 5.20116 21.0363 5.49252 17.417 7.19972C14.0082 8.8076 12.3079 10.3332 9.87152 13.1954C7.14827 16.3946 4.84122 22.6886 4.84122 22.6886C4.84122 22.6886 2.37672 28.9551 1.82304 33.181C1.34137 36.8574 0.834168 40.299 1.052 44C1.31793 48.5181 1.91636 49.5184 2.55198 54C3.10618 57.9075 4.02454 60.2969 4.84122 64.1588C5.97839 69.5361 7.3481 72.3651 8.86546 77.6491C10.9307 84.8408 13.8958 96.1358 13.8958 96.1358L19.9322 118.12L24.9625 139.105L30.4958 161.089L36.0292 181.075C36.0292 181.075 39.3536 192.519 41.5624 200.561C43.2177 206.587 44.8769 211.039 46.5927 217.049C48.7283 224.529 50.1507 228.66 52.629 236.035C55.5994 244.875 57.5889 249.719 60.6775 258.519C62.8658 264.753 66.2108 274.507 66.2108 274.507C66.2108 274.507 68.5806 283.529 72.2472 287.998C74.2673 290.46 75.379 292.165 78.2836 293.494C81.1606 294.81 83.165 295.048 86.3321 294.993C89.1099 294.944 90.9083 294.764 93.3744 293.494C95.9669 292.158 98.4047 287.998 98.4047 287.998C98.4047 287.998 102.861 279.857 105.447 274.507C108.417 268.364 112.49 258.519 112.49 258.519L118.526 245.029L124.059 231.039C124.059 231.039 128.329 220.676 131.102 214.051C133.637 207.994 135.065 204.602 137.641 198.562C140.559 191.721 142.127 187.855 145.187 181.075C147.667 175.578 149.177 172.551 151.726 167.085C155.272 159.48 157.169 155.173 160.78 147.599C163.488 141.92 165.145 138.802 167.823 133.109C171.284 125.75 172.885 121.469 176.374 114.123C180.311 105.836 183.044 101.444 186.938 93.1379C189.388 87.9115 190.719 84.8583 192.974 79.6477C195.527 73.7514 199.011 64.6584 199.011 64.6584C199.011 64.6584 201.87 56.2315 203.035 50.6685C203.804 46.9938 204.488 44.9281 204.544 41.1753C204.605 37.0366 204.332 34.6163 203.035 30.6828C201.941 27.3658 200.892 25.6365 199.011 22.6886C197.138 19.7545 193.477 15.6936 193.477 15.6936C193.477 15.6936 189.694 11.8008 186.938 9.69793C183.999 7.45523 182.252 6.41497 178.89 4.70154C176.154 3.30726 174.311 2.50727 171.344 1.70368C167.364 0.625538 164.829 0.916562 160.78 1.70368C157.057 2.42757 154.693 3.17761 151.223 4.70154C147.607 6.28949 145.971 7.53514 142.671 9.69793C138.723 12.2861 136.842 14.2542 133.617 17.6922C130.563 20.9475 126.574 26.6857 126.574 26.6857C126.574 26.6857 123.836 30.6591 122.047 33.181C119.535 36.7225 117.943 38.517 115.508 42.1746C113.404 45.3348 112.491 47.4507 110.477 50.6685C108.574 53.7107 105.95 58.6627 105.95 58.6627C105.95 58.6627 103.929 62.9461 101.423 63.1595C100.22 63.2618 99.5203 62.8842 98.4439 62.3418Z" fill="#F2F1E9"/>
<path d="M98.4439 62.3418C96.2003 61.2114 94.3806 57.1638 94.3806 57.1638L89.3502 48.6699L80.7987 34.1803C80.7987 34.1803 78.6461 30.9538 74.7623 26.6857L69.229 20.69C69.229 20.69 65.6866 17.4694 63.1927 15.6936C60.3998 13.705 58.9886 12.8089 56.1504 11.1968C53.0997 9.4642 51.2315 8.35715 48.1018 7.19972C44.1662 5.74426 41.7203 5.58009 37.5382 5.20116C33.6255 4.84665 27.4776 5.20116 27.4776 5.20116C27.4776 5.20116 21.0363 5.49252 17.417 7.19972C14.0082 8.8076 12.3079 10.3332 9.87152 13.1954C7.14827 16.3946 4.84122 22.6886 4.84122 22.6886C4.84122 22.6886 2.37672 28.9551 1.82304 33.181C1.34137 36.8574 0.834168 40.299 1.052 44C1.31793 48.5181 1.91636 49.5184 2.55198 54C3.10618 57.9075 4.02454 60.2969 4.84122 64.1588C5.97839 69.5361 7.3481 72.3651 8.86546 77.6491C10.9307 84.8408 13.8958 96.1358 13.8958 96.1358L19.9322 118.12L24.9625 139.105L30.4958 161.089L36.0292 181.075C36.0292 181.075 39.3536 192.519 41.5624 200.561C43.2177 206.587 44.8769 211.039 46.5927 217.049C48.7283 224.529 50.1507 228.66 52.629 236.035C55.5994 244.875 57.5889 249.719 60.6775 258.519C62.8658 264.753 66.2108 274.507 66.2108 274.507C66.2108 274.507 68.5806 283.529 72.2472 287.998C74.2673 290.46 75.379 292.165 78.2836 293.494C81.1606 294.81 83.165 295.048 86.3321 294.993C89.1099 294.944 90.9083 294.764 93.3744 293.494C95.9669 292.158 98.4047 287.998 98.4047 287.998C98.4047 287.998 102.861 279.857 105.447 274.507C108.417 268.364 112.49 258.519 112.49 258.519L118.526 245.029L124.059 231.039C124.059 231.039 128.329 220.676 131.102 214.051C133.637 207.994 135.065 204.602 137.641 198.562C140.559 191.721 142.127 187.855 145.187 181.075C147.667 175.578 149.177 172.551 151.726 167.085C155.272 159.48 157.169 155.173 160.78 147.599C163.488 141.92 165.145 138.802 167.823 133.109C171.284 125.75 172.885 121.469 176.374 114.123C180.311 105.836 183.044 101.444 186.938 93.1379C189.388 87.9115 190.719 84.8583 192.974 79.6477C195.527 73.7514 199.011 64.6584 199.011 64.6584C199.011 64.6584 201.87 56.2315 203.035 50.6685C203.804 46.9938 204.488 44.9281 204.544 41.1753C204.605 37.0366 204.332 34.6163 203.035 30.6828C201.941 27.3658 200.892 25.6365 199.011 22.6886C197.138 19.7545 193.477 15.6936 193.477 15.6936C193.477 15.6936 189.694 11.8008 186.938 9.69793C183.999 7.45523 182.252 6.41497 178.89 4.70154C176.154 3.30726 174.311 2.50727 171.344 1.70368C167.364 0.625538 164.829 0.916562 160.78 1.70368C157.057 2.42757 154.693 3.17761 151.223 4.70154C147.607 6.28949 145.971 7.53514 142.671 9.69793C138.723 12.2861 136.842 14.2542 133.617 17.6922C130.563 20.9475 126.574 26.6857 126.574 26.6857C126.574 26.6857 123.836 30.6591 122.047 33.181C119.535 36.7225 117.943 38.517 115.508 42.1746C113.404 45.3348 112.491 47.4507 110.477 50.6685C108.574 53.7107 105.95 58.6627 105.95 58.6627C105.95 58.6627 103.929 62.9461 101.423 63.1595C100.22 63.2618 99.5203 62.8842 98.4439 62.3418Z" fill="#F2F1E9"/>
<path d="M98.4439 62.3418C96.2003 61.2114 94.3806 57.1638 94.3806 57.1638L89.3502 48.6699L80.7987 34.1803C80.7987 34.1803 78.6461 30.9538 74.7623 26.6857L69.229 20.69C69.229 20.69 65.6866 17.4694 63.1927 15.6936C60.3998 13.705 58.9886 12.8089 56.1504 11.1968C53.0997 9.4642 51.2315 8.35715 48.1018 7.19972C44.1662 5.74426 41.7203 5.58009 37.5382 5.20116C33.6255 4.84665 27.4776 5.20116 27.4776 5.20116C27.4776 5.20116 21.0363 5.49252 17.417 7.19972C14.0082 8.8076 12.3079 10.3332 9.87152 13.1954C7.14827 16.3946 4.84122 22.6886 4.84122 22.6886C4.84122 22.6886 2.37672 28.9551 1.82304 33.181C1.34137 36.8574 0.834168 40.299 1.052 44C1.31793 48.5181 1.91636 49.5184 2.55198 54C3.10618 57.9075 4.02454 60.2969 4.84122 64.1588C5.97839 69.5361 7.3481 72.3651 8.86546 77.6491C10.9307 84.8408 13.8958 96.1358 13.8958 96.1358L19.9322 118.12L24.9625 139.105L30.4958 161.089L36.0292 181.075C36.0292 181.075 39.3536 192.519 41.5624 200.561C43.2177 206.587 44.8769 211.039 46.5927 217.049C48.7283 224.529 50.1507 228.66 52.629 236.035C55.5994 244.875 57.5889 249.719 60.6775 258.519C62.8658 264.753 66.2108 274.507 66.2108 274.507C66.2108 274.507 68.5806 283.529 72.2472 287.998C74.2673 290.46 75.379 292.165 78.2836 293.494C81.1606 294.81 83.165 295.048 86.3321 294.993C89.1099 294.944 90.9083 294.764 93.3744 293.494C95.9669 292.158 98.4047 287.998 98.4047 287.998C98.4047 287.998 102.861 279.857 105.447 274.507C108.417 268.364 112.49 258.519 112.49 258.519L118.526 245.029L124.059 231.039C124.059 231.039 128.329 220.676 131.102 214.051C133.637 207.994 135.065 204.602 137.641 198.562C140.559 191.721 142.127 187.855 145.187 181.075C147.667 175.578 149.177 172.551 151.726 167.085C155.272 159.48 157.169 155.173 160.78 147.599C163.488 141.92 165.145 138.802 167.823 133.109C171.284 125.75 172.885 121.469 176.374 114.123C180.311 105.836 183.044 101.444 186.938 93.1379C189.388 87.9115 190.719 84.8583 192.974 79.6477C195.527 73.7514 199.011 64.6584 199.011 64.6584C199.011 64.6584 201.87 56.2315 203.035 50.6685C203.804 46.9938 204.488 44.9281 204.544 41.1753C204.605 37.0366 204.332 34.6163 203.035 30.6828C201.941 27.3658 200.892 25.6365 199.011 22.6886C197.138 19.7545 193.477 15.6936 193.477 15.6936C193.477 15.6936 189.694 11.8008 186.938 9.69793C183.999 7.45523 182.252 6.41497 178.89 4.70154C176.154 3.30726 174.311 2.50727 171.344 1.70368C167.364 0.625538 164.829 0.916562 160.78 1.70368C157.057 2.42757 154.693 3.17761 151.223 4.70154C147.607 6.28949 145.971 7.53514 142.671 9.69793C138.723 12.2861 136.842 14.2542 133.617 17.6922C130.563 20.9475 126.574 26.6857 126.574 26.6857C126.574 26.6857 123.836 30.6591 122.047 33.181C119.535 36.7225 117.943 38.517 115.508 42.1746C113.404 45.3348 112.491 47.4507 110.477 50.6685C108.574 53.7107 105.95 58.6627 105.95 58.6627C105.95 58.6627 103.929 62.9461 101.423 63.1595C100.22 63.2618 99.5203 62.8842 98.4439 62.3418Z" stroke="#F2F1E9"/>
</svg>
