<svg width="28" height="28" viewBox="0 0 206 296" fill="none" xmlns="http://www.w3.org/2000/svg">
<path d="M98.8919 62.3418C96.6483 61.2114 94.8286 57.1638 94.8286 57.1638L89.7982 48.6699L81.2467 34.1803C81.2467 34.1803 79.0941 30.9538 75.2103 26.6857L69.677 20.69C69.677 20.69 66.1346 17.4694 63.6407 15.6936C60.8478 13.705 59.4366 12.8089 56.5984 11.1968C53.5477 9.4642 51.6794 8.35715 48.5498 7.19972C44.6142 5.74426 42.1683 5.58009 37.9862 5.20116C34.0735 4.84665 27.9256 5.20116 27.9256 5.20116C27.9256 5.20116 21.4843 5.49252 17.865 7.19972C14.4562 8.8076 12.7559 10.3332 10.3195 13.1954C7.59626 16.3946 5.28922 22.6886 5.28922 22.6886C5.28922 22.6886 2.82471 28.9551 2.27104 33.181C1.78937 36.8574 1.28217 40.299 1.5 44C1.76593 48.5181 2.36436 49.5184 2.99998 54C3.55418 57.9075 4.47254 60.2969 5.28922 64.1588C6.42639 69.5361 7.79609 72.3651 9.31345 77.6491C11.3787 84.8408 14.3438 96.1358 14.3438 96.1358L20.3802 118.12L25.4105 139.105L30.9438 161.089L36.4772 181.075C36.4772 181.075 39.8016 192.519 42.0104 200.561C43.6657 206.587 45.3249 211.039 47.0407 217.049C49.1763 224.529 50.5987 228.66 53.077 236.035C56.0474 244.875 58.0369 249.719 61.1255 258.519C63.3138 264.753 66.6588 274.507 66.6588 274.507C66.6588 274.507 69.0286 283.529 72.6952 287.998C74.7153 290.46 75.827 292.165 78.7316 293.494C81.6086 294.81 83.613 295.048 86.7801 294.993C89.5579 294.944 91.3563 294.764 93.8224 293.494C96.4149 292.158 98.8527 287.998 98.8527 287.998C98.8527 287.998 103.309 279.857 105.895 274.507C108.865 268.364 112.938 258.519 112.938 258.519L118.974 245.029L124.507 231.039C124.507 231.039 128.777 220.676 131.55 214.051C134.085 207.994 135.513 204.602 138.089 198.562C141.007 191.721 142.575 187.855 145.635 181.075C148.115 175.578 149.625 172.551 152.174 167.085C155.72 159.48 157.617 155.173 161.228 147.599C163.936 141.92 165.593 138.802 168.271 133.109C171.732 125.75 173.333 121.469 176.822 114.123C180.759 105.836 183.492 101.444 187.386 93.1379C189.836 87.9115 191.167 84.8583 193.422 79.6477C195.975 73.7514 199.459 64.6584 199.459 64.6584C199.459 64.6584 202.318 56.2315 203.483 50.6685C204.252 46.9938 204.936 44.9281 204.992 41.1753C205.053 37.0366 204.78 34.6163 203.483 30.6828C202.389 27.3658 201.34 25.6365 199.459 22.6886C197.586 19.7545 193.925 15.6936 193.925 15.6936C193.925 15.6936 190.142 11.8008 187.386 9.69793C184.447 7.45523 182.7 6.41497 179.338 4.70154C176.602 3.30726 174.759 2.50727 171.792 1.70368C167.812 0.625538 165.277 0.916562 161.228 1.70368C157.505 2.42757 155.141 3.17761 151.671 4.70154C148.055 6.28949 146.419 7.53514 143.119 9.69793C139.171 12.2861 137.29 14.2542 134.065 17.6922C131.011 20.9475 127.022 26.6857 127.022 26.6857C127.022 26.6857 124.284 30.6591 122.495 33.181C119.983 36.7225 118.391 38.517 115.956 42.1746C113.852 45.3348 112.939 47.4507 110.925 50.6685C109.022 53.7107 106.398 58.6627 106.398 58.6627C106.398 58.6627 104.377 62.9461 101.871 63.1595C100.668 63.2618 99.9683 62.8842 98.8919 62.3418Z" fill="#FD9809"/>
<path d="M98.8919 62.3418C96.6483 61.2114 94.8286 57.1638 94.8286 57.1638L89.7982 48.6699L81.2467 34.1803C81.2467 34.1803 79.0941 30.9538 75.2103 26.6857L69.677 20.69C69.677 20.69 66.1346 17.4694 63.6407 15.6936C60.8478 13.705 59.4366 12.8089 56.5984 11.1968C53.5477 9.4642 51.6794 8.35715 48.5498 7.19972C44.6142 5.74426 42.1683 5.58009 37.9862 5.20116C34.0735 4.84665 27.9256 5.20116 27.9256 5.20116C27.9256 5.20116 21.4843 5.49252 17.865 7.19972C14.4562 8.8076 12.7559 10.3332 10.3195 13.1954C7.59626 16.3946 5.28922 22.6886 5.28922 22.6886C5.28922 22.6886 2.82471 28.9551 2.27104 33.181C1.78937 36.8574 1.28217 40.299 1.5 44C1.76593 48.5181 2.36436 49.5184 2.99998 54C3.55418 57.9075 4.47254 60.2969 5.28922 64.1588C6.42639 69.5361 7.79609 72.3651 9.31345 77.6491C11.3787 84.8408 14.3438 96.1358 14.3438 96.1358L20.3802 118.12L25.4105 139.105L30.9438 161.089L36.4772 181.075C36.4772 181.075 39.8016 192.519 42.0104 200.561C43.6657 206.587 45.3249 211.039 47.0407 217.049C49.1763 224.529 50.5987 228.66 53.077 236.035C56.0474 244.875 58.0369 249.719 61.1255 258.519C63.3138 264.753 66.6588 274.507 66.6588 274.507C66.6588 274.507 69.0286 283.529 72.6952 287.998C74.7153 290.46 75.827 292.165 78.7316 293.494C81.6086 294.81 83.613 295.048 86.7801 294.993C89.5579 294.944 91.3563 294.764 93.8224 293.494C96.4149 292.158 98.8527 287.998 98.8527 287.998C98.8527 287.998 103.309 279.857 105.895 274.507C108.865 268.364 112.938 258.519 112.938 258.519L118.974 245.029L124.507 231.039C124.507 231.039 128.777 220.676 131.55 214.051C134.085 207.994 135.513 204.602 138.089 198.562C141.007 191.721 142.575 187.855 145.635 181.075C148.115 175.578 149.625 172.551 152.174 167.085C155.72 159.48 157.617 155.173 161.228 147.599C163.936 141.92 165.593 138.802 168.271 133.109C171.732 125.75 173.333 121.469 176.822 114.123C180.759 105.836 183.492 101.444 187.386 93.1379C189.836 87.9115 191.167 84.8583 193.422 79.6477C195.975 73.7514 199.459 64.6584 199.459 64.6584C199.459 64.6584 202.318 56.2315 203.483 50.6685C204.252 46.9938 204.936 44.9281 204.992 41.1753C205.053 37.0366 204.78 34.6163 203.483 30.6828C202.389 27.3658 201.34 25.6365 199.459 22.6886C197.586 19.7545 193.925 15.6936 193.925 15.6936C193.925 15.6936 190.142 11.8008 187.386 9.69793C184.447 7.45523 182.7 6.41497 179.338 4.70154C176.602 3.30726 174.759 2.50727 171.792 1.70368C167.812 0.625538 165.277 0.916562 161.228 1.70368C157.505 2.42757 155.141 3.17761 151.671 4.70154C148.055 6.28949 146.419 7.53514 143.119 9.69793C139.171 12.2861 137.29 14.2542 134.065 17.6922C131.011 20.9475 127.022 26.6857 127.022 26.6857C127.022 26.6857 124.284 30.6591 122.495 33.181C119.983 36.7225 118.391 38.517 115.956 42.1746C113.852 45.3348 112.939 47.4507 110.925 50.6685C109.022 53.7107 106.398 58.6627 106.398 58.6627C106.398 58.6627 104.377 62.9461 101.871 63.1595C100.668 63.2618 99.9683 62.8842 98.8919 62.3418Z" fill="#FD9809"/>
<path d="M98.8919 62.3418C96.6483 61.2114 94.8286 57.1638 94.8286 57.1638L89.7982 48.6699L81.2467 34.1803C81.2467 34.1803 79.0941 30.9538 75.2103 26.6857L69.677 20.69C69.677 20.69 66.1346 17.4694 63.6407 15.6936C60.8478 13.705 59.4366 12.8089 56.5984 11.1968C53.5477 9.4642 51.6794 8.35715 48.5498 7.19972C44.6142 5.74426 42.1683 5.58009 37.9862 5.20116C34.0735 4.84665 27.9256 5.20116 27.9256 5.20116C27.9256 5.20116 21.4843 5.49252 17.865 7.19972C14.4562 8.8076 12.7559 10.3332 10.3195 13.1954C7.59626 16.3946 5.28922 22.6886 5.28922 22.6886C5.28922 22.6886 2.82471 28.9551 2.27104 33.181C1.78937 36.8574 1.28217 40.299 1.5 44C1.76593 48.5181 2.36436 49.5184 2.99998 54C3.55418 57.9075 4.47254 60.2969 5.28922 64.1588C6.42639 69.5361 7.79609 72.3651 9.31345 77.6491C11.3787 84.8408 14.3438 96.1358 14.3438 96.1358L20.3802 118.12L25.4105 139.105L30.9438 161.089L36.4772 181.075C36.4772 181.075 39.8016 192.519 42.0104 200.561C43.6657 206.587 45.3249 211.039 47.0407 217.049C49.1763 224.529 50.5987 228.66 53.077 236.035C56.0474 244.875 58.0369 249.719 61.1255 258.519C63.3138 264.753 66.6588 274.507 66.6588 274.507C66.6588 274.507 69.0286 283.529 72.6952 287.998C74.7153 290.46 75.827 292.165 78.7316 293.494C81.6086 294.81 83.613 295.048 86.7801 294.993C89.5579 294.944 91.3563 294.764 93.8224 293.494C96.4149 292.158 98.8527 287.998 98.8527 287.998C98.8527 287.998 103.309 279.857 105.895 274.507C108.865 268.364 112.938 258.519 112.938 258.519L118.974 245.029L124.507 231.039C124.507 231.039 128.777 220.676 131.55 214.051C134.085 207.994 135.513 204.602 138.089 198.562C141.007 191.721 142.575 187.855 145.635 181.075C148.115 175.578 149.625 172.551 152.174 167.085C155.72 159.48 157.617 155.173 161.228 147.599C163.936 141.92 165.593 138.802 168.271 133.109C171.732 125.75 173.333 121.469 176.822 114.123C180.759 105.836 183.492 101.444 187.386 93.1379C189.836 87.9115 191.167 84.8583 193.422 79.6477C195.975 73.7514 199.459 64.6584 199.459 64.6584C199.459 64.6584 202.318 56.2315 203.483 50.6685C204.252 46.9938 204.936 44.9281 204.992 41.1753C205.053 37.0366 204.78 34.6163 203.483 30.6828C202.389 27.3658 201.34 25.6365 199.459 22.6886C197.586 19.7545 193.925 15.6936 193.925 15.6936C193.925 15.6936 190.142 11.8008 187.386 9.69793C184.447 7.45523 182.7 6.41497 179.338 4.70154C176.602 3.30726 174.759 2.50727 171.792 1.70368C167.812 0.625538 165.277 0.916562 161.228 1.70368C157.505 2.42757 155.141 3.17761 151.671 4.70154C148.055 6.28949 146.419 7.53514 143.119 9.69793C139.171 12.2861 137.29 14.2542 134.065 17.6922C131.011 20.9475 127.022 26.6857 127.022 26.6857C127.022 26.6857 124.284 30.6591 122.495 33.181C119.983 36.7225 118.391 38.517 115.956 42.1746C113.852 45.3348 112.939 47.4507 110.925 50.6685C109.022 53.7107 106.398 58.6627 106.398 58.6627C106.398 58.6627 104.377 62.9461 101.871 63.1595C100.668 63.2618 99.9683 62.8842 98.8919 62.3418Z" stroke="#FD9809"/>
</svg>
