<svg fill="none" height="24" viewBox="0 0 18 24" width="18" xmlns="http://www.w3.org/2000/svg"><path d="m15 8c-.17 0-.34.02-.5.05v-3.55c0-1.38-1.12-2.5-2.5-2.5-.19 0-.37.02-.54.06-.21-1.17-1.23-2.06-2.46-2.06-1.06 0-1.96.66-2.33 1.59-.21-.06-.44-.09-.67-.09-1.38 0-2.5 1.12-2.5 2.5v.55c-.16-.03-.33-.05-.5-.05-1.38 0-2.5 1.12-2.5 2.5v8.5c0 4.69 3.81 8.5 8.5 8.5s8.5-3.81 8.5-8.5v-5c0-1.38-1.12-2.5-2.5-2.5zm.5 7.5c0 3.59-2.91 6.5-6.5 6.5s-6.5-2.91-6.5-6.5v-8.5c0-.28.22-.5.5-.5s.5.22.5.5v5h2v-8c0-.28.22-.5.5-.5s.5.22.5.5v7h2v-8.5c0-.28.22-.5.5-.5s.5.22.5.5v8.5h2v-6.5c0-.28.22-.5.5-.5s.5.22.5.5v8.92c-1.77.77-3 2.53-3 4.58h2c0-1.66 1.34-3 3-3v-4.5c0-.28.22-.5.5-.5s.5.22.5.5z" fill="#FD9809"/></svg>